<svg xmlns="http://www.w3.org/2000/svg" width="63.189" height="79.487" viewBox="0 0 63.189 79.487">
  <path id="Icon_awesome-shower" data-name="Icon awesome-shower" d="M48.09,20.631,28.583,48.676a2.382,2.382,0,0,1-4.189,0L23,46.667a5.66,5.66,0,0,1,0-6.022l.014-.02c-4.2-7.134-4.339-17.555-.418-24.907a7.568,7.568,0,0,0-5.1-2.113c-5.292,0-9.6,6.189-9.6,13.8V81.737H0V27.4C0,13.533,7.848,2.25,17.5,2.25c4.558,0,8.714,2.519,11.831,6.639,4.431-2.042,9.441-.8,13.165,3.731l.014-.02a2.382,2.382,0,0,1,4.189,0l1.4,2.008A5.66,5.66,0,0,1,48.09,20.631Zm-.7,12.846c0,1.568-.884,2.839-1.975,2.839s-1.975-1.271-1.975-2.839.884-2.839,1.975-2.839S47.392,31.909,47.392,33.477Zm3.949,0c0-1.568.884-2.839,1.975-2.839s1.975,1.271,1.975,2.839-.884,2.839-1.975,2.839S51.341,35.045,51.341,33.477Zm11.848,0c0,1.568-.884,2.839-1.975,2.839s-1.975-1.271-1.975-2.839.884-2.839,1.975-2.839S63.189,31.909,63.189,33.477ZM43.442,39.155c0,1.568-.884,2.839-1.975,2.839s-1.975-1.271-1.975-2.839.884-2.839,1.975-2.839S43.442,37.587,43.442,39.155Zm5.924-2.839c1.091,0,1.975,1.271,1.975,2.839s-.884,2.839-1.975,2.839-1.975-1.271-1.975-2.839S48.276,36.316,49.366,36.316Zm9.873,2.839c0,1.568-.884,2.839-1.975,2.839s-1.975-1.271-1.975-2.839.884-2.839,1.975-2.839S59.24,37.587,59.24,39.155ZM39.493,44.832c0,1.568-.884,2.839-1.975,2.839s-1.975-1.271-1.975-2.839.884-2.839,1.975-2.839S39.493,43.265,39.493,44.832Zm3.949,0c0-1.568.884-2.839,1.975-2.839s1.975,1.271,1.975,2.839-.884,2.839-1.975,2.839S43.442,46.4,43.442,44.832Zm11.848,0c0,1.568-.884,2.839-1.975,2.839s-1.975-1.271-1.975-2.839.884-2.839,1.975-2.839S55.29,43.265,55.29,44.832Zm-15.8,5.678c0-1.568.884-2.839,1.975-2.839s1.975,1.271,1.975,2.839-.884,2.839-1.975,2.839S39.493,52.078,39.493,50.51Zm11.848,0c0,1.568-.884,2.839-1.975,2.839s-1.975-1.271-1.975-2.839.884-2.839,1.975-2.839S51.341,48.942,51.341,50.51ZM39.493,56.188c0,1.568-.884,2.839-1.975,2.839s-1.975-1.271-1.975-2.839.884-2.839,1.975-2.839S39.493,54.62,39.493,56.188Zm7.9,0c0,1.568-.884,2.839-1.975,2.839s-1.975-1.271-1.975-2.839.884-2.839,1.975-2.839S47.392,54.62,47.392,56.188Zm-3.949,5.678c0,1.568-.884,2.839-1.975,2.839s-1.975-1.271-1.975-2.839.884-2.839,1.975-2.839S43.442,60.3,43.442,61.865Zm-3.949,5.678c0,1.568-.884,2.839-1.975,2.839s-1.975-1.271-1.975-2.839.884-2.839,1.975-2.839S39.493,65.975,39.493,67.543Z" transform="translate(0 -2.25)" fill="#efefe3"/>
</svg>
