<svg xmlns="http://www.w3.org/2000/svg" width="66.145" height="83.206" viewBox="0 0 66.145 83.206">
  <path id="Icon_awesome-spa" data-name="Icon awesome-spa" d="M65.255,31.967c-3.335.024-15.5,1.144-24.556,15.415A54.814,54.814,0,0,0,33.073,65a54.814,54.814,0,0,0-7.626-17.618C16.394,33.111,4.225,31.991.89,31.967c-.506,0-.895.631-.89,1.452C.026,38.6.82,56.846,10.194,70.434c9.648,15.2,19.2,15.021,22.879,15.021s13.228.176,22.879-15.021c9.375-13.59,10.167-31.83,10.194-37.015C66.15,32.6,65.761,31.963,65.255,31.967ZM33.07,52.508a51.746,51.746,0,0,1,5.063-9.383,42.155,42.155,0,0,1,6.92-8.391C43.165,21.64,39.114,10.023,33.945,2.748a1.007,1.007,0,0,0-1.739,0C27.04,10.018,22.989,21.624,21.1,34.706a41.409,41.409,0,0,1,6.8,8.244,53.111,53.111,0,0,1,5.172,9.557Z" transform="translate(0 -2.25)" fill="#efefe3"/>
</svg>
