<svg xmlns="http://www.w3.org/2000/svg" width="65.68" height="79.486" viewBox="0 0 65.68 79.486">
  <path id="Icon_awesome-tree" data-name="Icon awesome-tree" d="M64.708,58.758,51.043,44.71h5.239a3.936,3.936,0,0,0,3.554-2.027,3.177,3.177,0,0,0-.561-3.734L45.912,24.839h4.942a3.908,3.908,0,0,0,3.568-2.113,3.217,3.217,0,0,0-.725-3.738L34.835.75a3.024,3.024,0,0,0-3.989,0L11.983,18.988a3.219,3.219,0,0,0-.725,3.738,3.911,3.911,0,0,0,3.57,2.113h4.942L6.4,38.952a3.181,3.181,0,0,0-.559,3.732A3.936,3.936,0,0,0,9.4,44.71h5.239L.973,58.758a3.189,3.189,0,0,0-.609,3.766,4.016,4.016,0,0,0,3.594,2.057H27.367v3.8L22.186,75.89a2.5,2.5,0,0,0,2.448,3.6H41.047a2.5,2.5,0,0,0,2.448-3.6l-5.181-7.514v-3.8H61.723a4.016,4.016,0,0,0,3.594-2.057A3.189,3.189,0,0,0,64.708,58.758Z" transform="translate(0 0.001)" fill="#efefe3"/>
</svg>
