<svg xmlns="http://www.w3.org/2000/svg" width="66.146" height="83.207" viewBox="0 0 66.146 83.207">
  <path id="Icon_map-laundry" data-name="Icon map-laundry" d="M4.32,18.424V78.156c0,2.6,2.1,5.771,4.681,5.771H65.34c2.576,0,5.125-3.169,5.125-5.771V18.424Zm33.005,47.4a18.17,18.17,0,1,1,18-18.169A18.083,18.083,0,0,1,37.325,65.827ZM65.34.72H9A4.466,4.466,0,0,0,4.32,5.155v9.728H70.466V5.155C70.466,2.549,67.917.72,65.34.72ZM26.369,11.342H7.712V4.261H26.369Zm32.473-.5a3.872,3.872,0,1,1,3.835-3.874A3.849,3.849,0,0,1,58.841,10.846Z" transform="translate(-4.32 -0.72)" fill="#efefe3"/>
</svg>
