<svg xmlns="http://www.w3.org/2000/svg" width="25.838" height="32.502" viewBox="0 0 25.838 32.502">
  <path id="Icon_map-pet-store" data-name="Icon map-pet-store" d="M16.519,15.192A3.955,3.955,0,0,1,20.28,18.35c.54,2.276.467,4.77,2.841,6.065,2.107.784,2.9,1.77,2.9,4.412a4.77,4.77,0,0,1-3.777,4.631,7.961,7.961,0,0,1-5.73-1.056,7.954,7.954,0,0,1-5.728,1.056,4.776,4.776,0,0,1-3.777-4.631c0-2.586.851-3.68,2.954-4.43,2.588-1.446,2.241-3.981,2.818-6.159A3.945,3.945,0,0,1,16.519,15.192Zm11.858-1.571c-.641-.61-3.259,1.771-4.083,2.948a3.931,3.931,0,0,0-.812,2.444c0,1.915,1.253,3.468,2.795,3.468a2.869,2.869,0,0,0,2.592-2.161C29.675,18.037,29.72,14.9,28.376,13.621Zm-23.716,0c-1.342,1.276-1.3,4.417-.49,6.7a2.868,2.868,0,0,0,2.591,2.161c1.543,0,2.795-1.553,2.795-3.468a3.93,3.93,0,0,0-.811-2.444C7.92,15.391,5.3,13.011,4.66,13.621ZM19.965,1.11c6.516,1.21,6.059,13.214.842,12.247a3.815,3.815,0,0,1-2.792-3.57C17.842,7.965,17.453.645,19.965,1.11Zm-6.892,0C15.585.644,15.2,7.964,15.023,9.786a3.813,3.813,0,0,1-2.791,3.57C7.014,14.325,6.557,2.319,13.073,1.11Z" transform="translate(-3.6 -1.089)" fill="#efefe3"/>
</svg>
