<svg xmlns="http://www.w3.org/2000/svg" width="63.189" height="79.487" viewBox="0 0 63.189 79.487">
  <path id="Icon_map-pet-store" data-name="Icon map-pet-store" d="M35.194,35.58a9.672,9.672,0,0,1,9.2,7.722c1.321,5.566,1.142,11.665,6.948,14.833,5.153,1.918,7.1,4.329,7.1,10.791,0,5.158-4.035,10.641-9.237,11.325A19.471,19.471,0,0,1,35.193,77.67a19.453,19.453,0,0,1-14.007,2.582c-5.205-.684-9.238-6.186-9.238-11.325,0-6.324,2.08-9,7.224-10.834,6.33-3.537,5.48-9.737,6.892-15.063A9.647,9.647,0,0,1,35.194,35.58Zm29-3.843c-1.569-1.491-7.971,4.33-9.985,7.209a9.613,9.613,0,0,0-1.986,5.977c0,4.685,3.065,8.483,6.835,8.483,2.869,0,5.324-2.182,6.339-5.286C67.37,42.539,67.479,34.858,64.193,31.738Zm-58,0c-3.281,3.121-3.175,10.8-1.2,16.383,1.016,3.1,3.469,5.286,6.336,5.286,3.774,0,6.835-3.8,6.835-8.483a9.612,9.612,0,0,0-1.984-5.977C14.165,36.068,7.764,30.246,6.192,31.738Zm37.43-30.6C59.558,4.1,58.44,33.457,45.681,31.091,42,30.407,39.267,26.74,38.852,22.36,38.43,17.905,37.48,0,43.622,1.141Zm-16.856,0C32.91,0,31.959,17.9,31.537,22.358c-.415,4.382-3.145,8.047-6.826,8.731C11.949,33.459,10.832,4.1,26.767,1.141Z" transform="translate(-3.6 -1.089)" fill="#efefe3"/>
</svg>
