<svg xmlns="http://www.w3.org/2000/svg" width="25.838" height="32.502" viewBox="0 0 25.838 32.502">
  <path id="Icon_awesome-shower" data-name="Icon awesome-shower" d="M19.664,9.766,11.688,21.233a.974.974,0,0,1-1.713,0L9.4,20.412a2.314,2.314,0,0,1,0-2.462l.006-.008A11.035,11.035,0,0,1,9.238,7.757a3.1,3.1,0,0,0-2.084-.864c-2.164,0-3.924,2.531-3.924,5.641V34.752H0V12.535C0,6.863,3.209,2.25,7.154,2.25a6.157,6.157,0,0,1,4.838,2.715,4.4,4.4,0,0,1,5.383,1.526l.006-.008a.974.974,0,0,1,1.713,0l.571.821A2.314,2.314,0,0,1,19.664,9.766Zm-.286,5.253c0,.641-.361,1.161-.807,1.161s-.807-.52-.807-1.161.361-1.161.807-1.161S19.378,14.378,19.378,15.019Zm1.615,0c0-.641.361-1.161.807-1.161s.807.52.807,1.161-.361,1.161-.807,1.161S20.993,15.66,20.993,15.019Zm4.845,0c0,.641-.361,1.161-.807,1.161s-.807-.52-.807-1.161.361-1.161.807-1.161S25.838,14.378,25.838,15.019ZM17.763,17.34c0,.641-.361,1.161-.807,1.161s-.807-.52-.807-1.161.361-1.161.807-1.161S17.763,16.7,17.763,17.34Zm2.422-1.161c.446,0,.807.52.807,1.161s-.361,1.161-.807,1.161-.807-.52-.807-1.161S19.74,16.179,20.186,16.179Zm4.037,1.161c0,.641-.361,1.161-.807,1.161s-.807-.52-.807-1.161.361-1.161.807-1.161S24.223,16.7,24.223,17.34Zm-8.074,2.322c0,.641-.361,1.161-.807,1.161s-.807-.52-.807-1.161.361-1.161.807-1.161S16.149,19.021,16.149,19.662Zm1.615,0c0-.641.361-1.161.807-1.161s.807.52.807,1.161-.361,1.161-.807,1.161S17.763,20.3,17.763,19.662Zm4.845,0c0,.641-.361,1.161-.807,1.161s-.807-.52-.807-1.161.361-1.161.807-1.161S22.608,19.021,22.608,19.662Zm-6.459,2.322c0-.641.361-1.161.807-1.161s.807.52.807,1.161-.361,1.161-.807,1.161S16.149,22.625,16.149,21.983Zm4.845,0c0,.641-.361,1.161-.807,1.161s-.807-.52-.807-1.161.361-1.161.807-1.161S20.993,21.342,20.993,21.983ZM16.149,24.3c0,.641-.361,1.161-.807,1.161s-.807-.52-.807-1.161.361-1.161.807-1.161S16.149,23.664,16.149,24.3Zm3.23,0c0,.641-.361,1.161-.807,1.161s-.807-.52-.807-1.161.361-1.161.807-1.161S19.378,23.664,19.378,24.3Zm-1.615,2.322c0,.641-.361,1.161-.807,1.161s-.807-.52-.807-1.161.361-1.161.807-1.161S17.763,25.985,17.763,26.627Zm-1.615,2.322c0,.641-.361,1.161-.807,1.161s-.807-.52-.807-1.161.361-1.161.807-1.161S16.149,28.307,16.149,28.948Z" transform="translate(0 -2.25)" fill="#efefe3"/>
</svg>
