<svg xmlns="http://www.w3.org/2000/svg" width="25.838" height="32.502" viewBox="0 0 25.838 32.502">
  <path id="Icon_awesome-spa" data-name="Icon awesome-spa" d="M25.49,13.858c-1.3.009-6.056.447-9.592,6.022a21.412,21.412,0,0,0-2.979,6.882A21.412,21.412,0,0,0,9.94,19.879C6.4,14.3,1.65,13.867.348,13.858c-.2,0-.349.247-.348.567.01,2.026.32,9.151,3.982,14.459,3.769,5.936,7.5,5.868,8.937,5.868s5.167.069,8.937-5.868c3.662-5.308,3.972-12.433,3.982-14.459,0-.321-.15-.569-.348-.567ZM12.918,21.882A20.213,20.213,0,0,1,14.9,18.216a16.467,16.467,0,0,1,2.7-3.278c-.737-5.115-2.32-9.653-4.339-12.494a.393.393,0,0,0-.679,0c-2.018,2.84-3.6,7.373-4.339,12.483a16.175,16.175,0,0,1,2.656,3.22,20.746,20.746,0,0,1,2.02,3.733Z" transform="translate(0 -2.25)" fill="#efefe3"/>
</svg>
