<svg xmlns="http://www.w3.org/2000/svg" width="25.838" height="32.502" viewBox="0 0 25.838 32.502">
  <path id="Icon_map-laundry" data-name="Icon map-laundry" d="M4.32,7.635V30.968c0,1.017.82,2.254,1.829,2.254H28.156a2.39,2.39,0,0,0,2-2.254V7.635ZM17.212,26.152a7.1,7.1,0,1,1,7.03-7.1A7.063,7.063,0,0,1,17.212,26.152ZM28.156.72H6.149A1.744,1.744,0,0,0,4.32,2.452v3.8H30.158v-3.8A1.9,1.9,0,0,0,28.156.72ZM12.933,4.869H5.645V2.1h7.288Zm12.684-.194a1.512,1.512,0,1,1,1.5-1.513A1.5,1.5,0,0,1,25.617,4.676Z" transform="translate(-4.32 -0.72)" fill="#efefe3"/>
</svg>
