<svg xmlns="http://www.w3.org/2000/svg" width="26.857" height="32.502" viewBox="0 0 26.857 32.502">
  <path id="Icon_awesome-tree" data-name="Icon awesome-tree" d="M26.46,24.026l-5.588-5.744h2.142a1.609,1.609,0,0,0,1.453-.829,1.3,1.3,0,0,0-.229-1.527l-5.465-5.77h2.021a1.6,1.6,0,0,0,1.459-.864,1.315,1.315,0,0,0-.3-1.529L14.244.307a1.236,1.236,0,0,0-1.631,0L4.9,7.764a1.316,1.316,0,0,0-.3,1.529,1.6,1.6,0,0,0,1.46.864H8.084L2.619,15.927a1.3,1.3,0,0,0-.229,1.526,1.609,1.609,0,0,0,1.453.828H5.986L.4,24.026a1.3,1.3,0,0,0-.249,1.54,1.642,1.642,0,0,0,1.469.841h9.572v1.552L9.072,31.032a1.024,1.024,0,0,0,1,1.47h6.712a1.024,1.024,0,0,0,1-1.47l-2.119-3.072V26.407h9.572a1.642,1.642,0,0,0,1.469-.841A1.3,1.3,0,0,0,26.46,24.026Z" transform="translate(0 0.001)" fill="#efefe3"/>
</svg>
